# xmcd
#
# Track frame offsets:
#	150
#	14100
#	26263
#	44823
#	55858
#	71869
#	90276
#	105764
#	116867
#	131924
#	143958
#	160412
#	173643
#	186225
#	204626
#	216762
#	231110
#
# Disc length: 3273 seconds
#
# Revision: 1
# Processed by: cddbd v1.5.1PL0 Copyright (c) Steve Scherf et al.
# Submitted via: EasyCDDAExtractor 8.2.1.1
#
DISCID=f90cc711
DTITLE=Mardem and Marlom - Quebradeira
DYEAR=2005
DGENRE=Country
TTITLE0=Baile De Barraca
TTITLE1=Quebradeira
TTITLE2=Lágrimas Da Madrugada
TTITLE3=Embirrado
TTITLE4=Sai De Mim
TTITLE5=Beija Beija
TTITLE6=Calo Na Bunda
TTITLE7=Patrão Chato
TTITLE8=Dois Mato Grosso
TTITLE9=Só Me Resta Solidão
TTITLE10=Embala Morena
TTITLE11=Essa Muié Tá Ruim Da Bola
TTITLE12=Na Boca Do Brasil
TTITLE13=Dona Do Mundo
TTITLE14=Essa Garota É Dez
TTITLE15=O Amor E A Distância
TTITLE16=Suas Marcas
EXTD=by Flávio Abrahão Biasuz
EXTT0=
EXTT1=
EXTT2=
EXTT3=
EXTT4=
EXTT5=
EXTT6=
EXTT7=
EXTT8=
EXTT9=
EXTT10=
EXTT11=
EXTT12=
EXTT13=
EXTT14=
EXTT15=
EXTT16=
PLAYORDER=
